name rise36.2859peak64.2979fall75.1499.mot
datacolumns 19
datarows 11
range 6.61998700000000 6.63664600000000
endheader
time	ground_force1_vx	ground_force1_vy	ground_force1_vz	ground_force1_px	ground_force1_py	ground_force1_pz	ground_force2_vx	ground_force2_vy	ground_force2_vz	ground_force2_px	ground_force2_py	ground_force2_pz	ground_torque1_x	ground_torque1_y	ground_torque1_z	ground_torque2_x	ground_torque2_y	ground_torque2_z	
6.61998700000000	-11.77720000000000	44.92293300000000	-12.57778800000000	0.40266100000000	0.00000000000000	0.07426100000000	-42.52910700000000	798.10335799999996	-58.08854500000000	0.22365200000000	0.00000000000000	-0.10739900000000	0.00000000000000	-10.54678300000000	0.00000000000000	0.00000000000000	-32.13183900000000	0.00000000000000	
6.62164000000000	-12.78553200000000	51.39243100000000	-13.82577600000000	0.40528200000000	0.00000000000000	0.07542000000000	-43.11301100000000	795.56372799999997	-57.76837600000000	0.22278900000000	0.00000000000000	-0.10733100000000	0.00000000000000	-11.63806900000000	0.00000000000000	0.00000000000000	-32.02261100000000	0.00000000000000	
6.62330700000000	-13.60530900000000	57.81240300000000	-14.91364200000000	0.40770600000000	0.00000000000000	0.07649700000000	-43.71200700000000	792.90547500000002	-57.42414700000000	0.22192100000000	0.00000000000000	-0.10726100000000	0.00000000000000	-12.60367600000000	0.00000000000000	0.00000000000000	-31.91030100000000	0.00000000000000	
6.62498200000000	-14.21927100000000	64.12029099999999	-15.82217400000000	0.40996200000000	0.00000000000000	0.07750200000000	-44.32594200000000	790.12735299999997	-57.05587600000000	0.22104700000000	0.00000000000000	-0.10718800000000	0.00000000000000	-13.42698000000000	0.00000000000000	0.00000000000000	-31.79497600000000	0.00000000000000	
6.62664000000000	-14.62080400000000	70.27802100000000	-16.54239800000000	0.41207300000000	0.00000000000000	0.07844300000000	-44.95458800000000	787.22803999999996	-56.66361100000000	0.22016800000000	0.00000000000000	-0.10711200000000	0.00000000000000	-14.09986800000000	0.00000000000000	0.00000000000000	-31.67669600000000	0.00000000000000	
6.62830800000000	-14.81302400000000	76.27146800000000	-17.07482400000000	0.41406100000000	0.00000000000000	0.07932800000000	-45.59764300000000	784.20613600000001	-56.24742800000000	0.21928300000000	0.00000000000000	-0.10703400000000	0.00000000000000	-14.62216400000000	0.00000000000000	0.00000000000000	-31.55551300000000	0.00000000000000	
6.62997400000000	-14.80722700000000	82.10803000000000	-17.42805000000000	0.41594100000000	0.00000000000000	0.08016300000000	-46.25472600000000	781.06016799999998	-55.80743400000000	0.21839400000000	0.00000000000000	-0.10695300000000	0.00000000000000	-15.00050000000000	0.00000000000000	0.00000000000000	-31.43147000000000	0.00000000000000	
6.63164300000000	-14.62092700000000	87.81285099999999	-17.61693900000000	0.41772800000000	0.00000000000000	0.08095200000000	-46.92537900000000	777.78858700000001	-55.34376400000000	0.21749900000000	0.00000000000000	-0.10687000000000	0.00000000000000	-15.24681600000000	0.00000000000000	0.00000000000000	-31.30460400000000	0.00000000000000	
6.63330900000000	-14.27573000000000	93.42423700000001	-17.66060200000000	0.41943500000000	0.00000000000000	0.08170100000000	-47.60906100000000	774.38977599999998	-54.85658300000000	0.21659900000000	0.00000000000000	-0.10678400000000	0.00000000000000	-15.37669300000000	0.00000000000000	0.00000000000000	-31.17494000000000	0.00000000000000	
6.63497200000000	-13.79523700000000	98.98877800000000	-17.58037800000000	0.42107100000000	0.00000000000000	0.08241300000000	-48.30515100000000	770.86204799999996	-54.34608800000000	0.21569600000000	0.00000000000000	-0.10669600000000	0.00000000000000	-15.40766800000000	0.00000000000000	0.00000000000000	-31.04249600000000	0.00000000000000	
6.63664600000000	-13.20314400000000	104.55663199999999	-17.39799100000000	0.42264600000000	0.00000000000000	0.08309000000000	-49.01294200000000	767.20365500000003	-53.81250500000000	0.21478800000000	0.00000000000000	-0.10660600000000	0.00000000000000	-15.35767900000000	0.00000000000000	0.00000000000000	-30.90727700000000	0.00000000000000	
